<svg width="56" height="50" viewBox="0 0 56 50" fill="none" xmlns="http://www.w3.org/2000/svg">
<path d="M26.1233 1.19787C26.9132 -0.178789 28.9151 -0.130915 29.6383 1.28193L36.4414 14.5718C36.7391 15.1534 37.3022 15.553 37.9496 15.6419L53.3512 17.757C55.0846 17.9951 55.6983 20.1869 54.3406 21.2905L43.3519 30.2218C42.7765 30.6894 42.5071 31.437 42.6518 32.1642L45.6035 46.9949C45.9405 48.6879 44.1185 49.9839 42.6297 49.1102L28.9706 41.0941C28.3456 40.7273 27.571 40.7273 26.946 41.0941L13.168 49.1799C11.6985 50.0423 9.8926 48.7897 10.1855 47.1112L12.802 32.1166C12.9246 31.4143 12.664 30.6998 12.1181 30.2413L1.41851 21.2551C0.0957727 20.1442 0.70862 17.9918 2.41816 17.7442L16.953 15.6395C17.5612 15.5514 18.0952 15.1886 18.4011 14.6556L26.1233 1.19787Z" fill="#7C7C7C"/>
</svg>
