<svg width="59" height="59" viewBox="0 0 59 59" fill="none" xmlns="http://www.w3.org/2000/svg">
<g clip-path="url(#clip0_54_107)">
<mask id="mask0_54_107" style="mask-type:luminance" maskUnits="userSpaceOnUse" x="0" y="0" width="59" height="59">
<path d="M59 0H0V59H59V0Z" fill="white"/>
</mask>
<g mask="url(#mask0_54_107)">
<mask id="mask1_54_107" style="mask-type:luminance" maskUnits="userSpaceOnUse" x="0" y="0" width="59" height="59">
<path d="M59 0H0V59H59V0Z" fill="white"/>
</mask>
<g mask="url(#mask1_54_107)">
<path d="M4.51176 51.6793C3.87169 51.6787 3.24267 51.5124 2.68589 51.1967C2.12911 50.881 1.66353 50.4265 1.33444 49.8776C1.00536 49.3286 0.823969 48.7037 0.807928 48.0639C0.791886 47.424 0.941737 46.7909 1.2429 46.2261L3.91092 41.2133C4.37287 40.3446 5.16099 39.695 6.10189 39.4074C6.56777 39.265 7.05715 39.2157 7.54207 39.2625C8.02699 39.3092 8.49796 39.451 8.92808 39.6797C9.35821 39.9084 9.73907 40.2197 10.0489 40.5956C10.3588 40.9715 10.5916 41.4048 10.734 41.8707C10.8764 42.3366 10.9256 42.8259 10.8789 43.3109C10.8322 43.7958 10.6904 44.2667 10.4617 44.6969L7.79364 49.714C7.47657 50.3087 7.00357 50.8058 6.42539 51.152C5.84721 51.4983 5.18567 51.6805 4.51176 51.6793Z" fill="#F4C34A"/>
<path d="M7.18846 39.7881C7.73479 39.7888 8.27165 39.9308 8.74687 40.2003C9.22209 40.4698 9.61951 40.8577 9.9005 41.3262C10.1815 41.7947 10.3365 42.328 10.3504 42.8741C10.3644 43.4203 10.2368 43.9608 9.98011 44.443L7.3121 49.458C7.04244 49.9659 6.6394 50.3905 6.14635 50.6864C5.65331 50.9822 5.08892 51.138 4.51394 51.1369C3.99621 51.1387 3.48623 51.0112 3.03026 50.766C2.28912 50.371 1.73494 49.6981 1.48933 48.8949C1.24371 48.0918 1.32671 47.224 1.72011 46.482L4.3903 41.467C4.66011 40.9593 5.06318 40.5347 5.5562 40.2389C6.04921 39.9431 6.61351 39.7873 7.18846 39.7881ZM7.18846 38.7035C6.41643 38.703 5.65884 38.9127 4.99696 39.3102C4.33509 39.7076 3.79393 40.2777 3.43155 40.9594L0.763534 45.9731C0.266697 46.9652 0.17739 48.1122 0.514679 49.1693C0.851969 50.2263 1.58913 51.1096 2.56877 51.6306C3.5484 52.1515 4.69289 52.2689 5.75786 51.9575C6.82283 51.6462 7.7239 50.9309 8.26868 49.9643L10.9389 44.9493C11.2836 44.3017 11.4549 43.5758 11.4361 42.8424C11.4172 42.109 11.2089 41.3929 10.8314 40.7638C10.4538 40.1347 9.91994 39.614 9.28158 39.2524C8.64322 38.8908 7.92214 38.7005 7.18846 38.7001" fill="black"/>
<path d="M54.4796 51.6792C53.806 51.6801 53.1449 51.4976 52.5672 51.1514C51.9894 50.8052 51.5168 50.3083 51.1999 49.714L48.5318 44.6968C48.3017 44.2667 48.1587 43.7954 48.111 43.31C48.0633 42.8245 48.1118 42.3345 48.2537 41.8678C48.3957 41.4011 48.6283 40.967 48.9383 40.5904C49.2483 40.2137 49.6295 39.902 50.0602 39.6729C50.4908 39.4438 50.9624 39.3019 51.448 39.2553C51.9335 39.2088 52.4235 39.2585 52.8898 39.4015C53.3562 39.5446 53.7897 39.7783 54.1656 40.0892C54.5415 40.4 54.8524 40.782 55.0804 41.2132L57.7484 46.226C58.0496 46.7908 58.1994 47.424 58.1834 48.0638C58.1674 48.7037 57.986 49.3285 57.6569 49.8775C57.3278 50.4265 56.8622 50.8809 56.3054 51.1967C55.7487 51.5124 55.1196 51.6786 54.4796 51.6792Z" fill="#F4C34A"/>
<path d="M51.8029 39.7882C52.3778 39.7873 52.9421 39.9432 53.4351 40.239C53.9282 40.5348 54.3312 40.9594 54.601 41.4671L57.2712 46.4821C57.6646 47.2241 57.7476 48.0919 57.502 48.895C57.2564 49.6981 56.7022 50.371 55.9611 50.7661C55.5051 51.0113 54.9951 51.1388 54.4774 51.137C53.9024 51.138 53.338 50.9823 52.845 50.6864C52.3519 50.3906 51.9489 49.9659 51.6792 49.4581L49.0112 44.4431C48.7545 43.9608 48.6269 43.4204 48.6409 42.8742C48.6549 42.3281 48.8099 41.7948 49.0908 41.3263C49.3718 40.8577 49.7692 40.4699 50.2445 40.2004C50.7197 39.9308 51.2565 39.7888 51.8029 39.7882ZM51.8029 38.7036C51.0692 38.704 50.3481 38.8943 49.7098 39.256C49.0714 39.6176 48.5375 40.1383 48.16 40.7673C47.7824 41.3964 47.5741 42.1125 47.5553 42.8459C47.5364 43.5794 47.7077 44.3052 48.0525 44.9528L50.7227 49.9678C51.2674 50.9344 52.1685 51.6498 53.2335 51.9611C54.2984 52.2724 55.4429 52.1551 56.4226 51.6341C57.4022 51.1131 58.1394 50.2298 58.4767 49.1728C58.8139 48.1158 58.7246 46.9688 58.2278 45.9767L55.5598 40.9617C55.1974 40.28 54.6562 39.7098 53.9944 39.3124C53.3325 38.915 52.5749 38.7053 51.8029 38.7058" fill="black"/>
<path d="M21.2291 54.267C15.2229 54.267 10.1601 52.0263 6.18198 47.6035C2.73525 43.775 -0.314527 36.5323 1.13271 29.6822C2.18039 24.7301 5.42973 20.906 10.5293 18.6197C10.598 18.5928 10.6596 18.5504 10.7092 18.4959C10.7589 18.4413 10.7953 18.3761 10.8156 18.3052C11.436 15.8823 14.2429 7.76762 24.2902 5.16685C26.2585 4.65977 28.283 4.40323 30.3156 4.40332C39.389 4.40332 47.3909 9.581 49.8832 14.5873C52.0436 18.9212 51.8875 21.6543 51.6011 22.8951C51.5799 22.9905 51.5885 23.0901 51.6257 23.1805C51.663 23.2709 51.7271 23.3477 51.8094 23.4005C54.1585 25.0295 61.4554 31.1767 56.7745 41.8163C52.1846 52.2432 42.7273 53.3712 38.8749 53.3712C36.4653 53.3895 34.0714 52.9819 31.8036 52.1673L31.2331 51.6727L31.4479 52.1695C28.2081 53.5214 24.7373 54.2337 21.227 54.267" fill="#FFFEF5"/>
<path d="M30.3134 4.94564C39.2806 4.94564 46.9961 10.0084 49.3973 14.8281C51.51 19.0666 51.3322 21.65 51.074 22.7758C51.0281 22.9756 51.0439 23.1846 51.1194 23.3752C51.195 23.5658 51.3266 23.729 51.497 23.843C53.7225 25.3874 60.8047 31.3113 56.2778 41.5994C52.5577 50.0481 45.2131 52.8289 38.8749 52.8289C36.5301 52.8437 34.2007 52.448 31.9923 51.6598C31.8746 51.6146 31.7497 51.5911 31.6236 51.5904C31.4891 51.5903 31.3561 51.6184 31.2331 51.6728C28.0627 52.9978 24.6652 53.6946 21.2292 53.7248C18.4636 53.7725 15.7208 53.2172 13.1915 52.0975C10.6622 50.9779 8.40723 49.3207 6.58327 47.2413C0.509744 40.4931 -2.78948 25.1813 10.7523 19.1165C10.8951 19.0561 11.0223 18.964 11.1241 18.8471C11.226 18.7302 11.2999 18.5916 11.3401 18.4419C12.174 15.3369 13.8296 12.5141 16.1325 10.2707C18.4355 8.02733 21.3007 6.44627 24.4264 5.69399C26.3491 5.1962 28.3273 4.94473 30.3134 4.94564ZM30.3134 3.86108C28.2353 3.86049 26.1654 4.12287 24.1531 4.64197C13.8194 7.31649 10.928 15.6741 10.2881 18.1729C5.0432 20.4852 1.68757 24.4417 0.603016 29.5695C-0.884999 36.6061 2.24287 44.0375 5.77636 47.9658C9.86515 52.5057 15.0624 54.8093 21.2292 54.8093C24.8123 54.7737 28.355 54.0468 31.6626 52.6684C33.9721 53.5146 36.4154 53.9364 38.8749 53.9135C42.8336 53.9135 52.5512 52.7552 57.2691 42.0354C62.1192 31.0163 54.5511 24.6434 52.1174 22.9515C52.4319 21.7042 52.6033 18.8302 50.3691 14.3444C47.8377 9.26219 39.9486 3.86108 30.3156 3.86108" fill="black"/>
<g style="mix-blend-mode:multiply" opacity="0.5">
<mask id="mask2_54_107" style="mask-type:luminance" maskUnits="userSpaceOnUse" x="4" y="25" width="55" height="30">
<path d="M58.1666 25.1539H4.6163V54.0544H58.1666V25.1539Z" fill="white"/>
</mask>
<g mask="url(#mask2_54_107)">
<path d="M53.5468 25.1548C55.486 28.2219 56.6964 32.7142 54.7615 38.9113C51.7833 48.4381 40.9898 51.8002 31.9966 48.911C31.6213 48.7845 31.2119 48.8055 30.8513 48.9695C28.1833 50.1864 16.1057 54.8305 4.61804 45.282C5.11663 46.0541 5.67125 46.7885 6.27742 47.4793C15.5677 57.8043 28.4263 53.1733 31.1355 52.0345C31.4771 51.894 31.8594 51.8886 32.2049 52.0193C39.0268 54.4726 51.4146 53.696 56.6682 41.7594C60.3774 33.3345 56.4036 27.7989 53.5512 25.1548" fill="#E8D6A7"/>
</g>
</g>
<path d="M19.2726 12.5332C19.2726 12.5332 16.2901 14.8628 16.5504 17.6133C16.6017 18.0973 16.7727 18.561 17.048 18.9624C17.3233 19.3638 17.6942 19.6904 18.1273 19.9125C18.7202 20.189 19.3902 20.2533 20.0248 20.0945C20.6594 19.9358 21.2202 19.5637 21.6131 19.0406C21.9029 18.5561 22.0362 17.9941 21.9949 17.4311C21.9601 15.7652 19.9841 15.5288 19.752 17.1057C19.431 19.2727 21.4547 20.3832 24.0946 20.4245" stroke="black" stroke-width="0.5" stroke-linecap="round" stroke-linejoin="round"/>
<g opacity="0.4">
<mask id="mask3_54_107" style="mask-type:luminance" maskUnits="userSpaceOnUse" x="40" y="30" width="9" height="9">
<path d="M48.4216 30.6639H40.4016V38.6836H48.4216V30.6639Z" fill="white"/>
</mask>
<g mask="url(#mask3_54_107)">
<path d="M40.4023 34.6729C40.4025 35.4659 40.6378 36.2411 41.0784 36.9003C41.5191 37.5596 42.1454 38.0734 42.878 38.3768C43.6107 38.6802 44.4169 38.7596 45.1946 38.6048C45.9724 38.4501 46.6868 38.0682 47.2475 37.5074C47.8082 36.9467 48.1901 36.2323 48.3449 35.4546C48.4996 34.6768 48.4203 33.8706 48.1169 33.138C47.8135 32.4053 47.2997 31.779 46.6404 31.3384C45.9811 30.8977 45.206 30.6624 44.413 30.6622C43.3493 30.6623 42.3292 31.0849 41.5771 31.8371C40.825 32.5892 40.4024 33.6093 40.4023 34.6729Z" fill="#FF9B73"/>
</g>
</g>
<g opacity="0.4">
<mask id="mask4_54_107" style="mask-type:luminance" maskUnits="userSpaceOnUse" x="10" y="30" width="9" height="9">
<path d="M18.5985 30.6639H10.5788V38.6836H18.5985V30.6639Z" fill="white"/>
</mask>
<g mask="url(#mask4_54_107)">
<path d="M18.5977 34.6729C18.5976 35.4659 18.3623 36.2411 17.9216 36.9003C17.4809 37.5596 16.8547 38.0734 16.122 38.3768C15.3893 38.6802 14.5832 38.7596 13.8054 38.6048C13.0277 38.4501 12.3133 38.0682 11.7525 37.5074C11.1918 36.9467 10.8099 36.2323 10.6552 35.4546C10.5004 34.6768 10.5797 33.8706 10.8831 33.138C11.1865 32.4053 11.7003 31.779 12.3596 31.3384C13.0189 30.8977 13.794 30.6624 14.587 30.6622C15.6507 30.6623 16.6708 31.0849 17.4229 31.8371C18.175 32.5892 18.5976 33.6093 18.5977 34.6729Z" fill="#FF9B73"/>
</g>
</g>
<path d="M21.4135 38.2502C23.0187 40.7165 26.0359 42.3824 29.5 42.3824C32.9641 42.3824 35.9813 40.7165 37.5865 38.2502" stroke="black" stroke-width="0.7" stroke-linecap="round" stroke-linejoin="round"/>
<path d="M15.1838 28.0272C15.5928 27.4629 16.1174 26.9922 16.7226 26.6465C17.3278 26.3009 17.9996 26.0881 18.6935 26.0225" stroke="black" stroke-width="0.5" stroke-linecap="round" stroke-linejoin="round"/>
<path d="M43.7012 28.0272C43.2922 27.4629 42.7676 26.9922 42.1625 26.6465C41.5573 26.3009 40.8854 26.0881 40.1916 26.0225" stroke="black" stroke-width="0.5" stroke-linecap="round" stroke-linejoin="round"/>
<path d="M16.2358 31.6539C16.6299 32.2239 17.1591 32.6874 17.7761 33.0027C18.3931 33.318 19.0787 33.4754 19.7715 33.4608C20.4639 33.4752 21.1491 33.3176 21.7658 33.0023C22.3824 32.687 22.9113 32.2237 23.305 31.6539" stroke="black" stroke-width="0.7" stroke-linecap="round" stroke-linejoin="round"/>
<path d="M35.5805 31.6539C35.9745 32.2239 36.5037 32.6874 37.1207 33.0027C37.7378 33.318 38.4234 33.4754 39.1161 33.4608C39.8089 33.4755 40.4946 33.3182 41.1116 33.0028C41.7287 32.6875 42.2579 32.224 42.6518 31.6539" stroke="black" stroke-width="0.7" stroke-linecap="round" stroke-linejoin="round"/>
</g>
</g>
</g>
<defs>
<clipPath id="clip0_54_107">
<rect width="59" height="59" fill="white"/>
</clipPath>
</defs>
</svg>
