<svg width="21" height="20" viewBox="0 0 21 20" fill="none" xmlns="http://www.w3.org/2000/svg">
<g clip-path="url(#clip0_1_16)">
<g clip-path="url(#clip1_1_16)">
<path d="M10.753 18.51C15.5065 18.51 19.36 14.6565 19.36 9.90302C19.36 5.14951 15.5065 1.29602 10.753 1.29602C5.99947 1.29602 2.14598 5.14951 2.14598 9.90302C2.14598 14.6565 5.99947 18.51 10.753 18.51Z" stroke="black"/>
<path d="M11.5301 11.5132H6.03598V10.5121H10.2821H10.5321V10.2621V6.01398H11.5301V10.2621V11.5132Z" fill="black"/>
<path d="M11.2801 11.2632V6.26398H10.7821V10.7621H6.28598V11.2632H11.2801ZM11.7801 11.7632H5.78598V10.2621H10.2821V5.76398H11.7801V11.7632Z" fill="black"/>
</g>
</g>
<defs>
<clipPath id="clip0_1_16">
<rect width="20" height="20" fill="white" transform="translate(0.919983)"/>
</clipPath>
<clipPath id="clip1_1_16">
<rect width="20" height="20" fill="white" transform="translate(0.919983)"/>
</clipPath>
</defs>
</svg>
